<?xml version="1.0" encoding="utf-8"?>
<!DOCTYPE svg PUBLIC "-//W3C//DTD SVG 1.1//EN" "http://www.w3.org/Graphics/SVG/1.1/DTD/svg11.dtd">
<svg version="1.1" id="brm" xmlns="http://www.w3.org/2000/svg" xmlns:xlink="http://www.w3.org/1999/xlink" x="0px" y="0px"
	 width="275.377px" height="35.881px" viewBox="0 -0.344 275.377 35.881" enable-background="new 0 -0.344 275.377 35.881"
	 xml:space="preserve">
<g>
	<path fill="#1F3B6F" d="M44.46,18.19c-2.638-1.731-5.284-3.449-7.928-5.174c-1.413-0.922-2.819-1.856-4.242-2.763
		c-0.966-0.615-2.132-0.124-2.382,0.972c-0.166,0.727,0.141,1.371,0.889,1.859c3.097,2.018,6.193,4.035,9.289,6.053
		c0.207,0.136,0.409,0.277,0.66,0.447c-0.184,0.127-0.3,0.218-0.424,0.295c-3.117,1.915-6.234,3.828-9.352,5.743
		c-0.086,0.053-0.174,0.103-0.26,0.157c-0.826,0.529-1.078,1.474-0.609,2.278c0.449,0.771,1.375,0.991,2.19,0.492
		c4.054-2.481,8.106-4.966,12.154-7.46C45.627,20.363,45.633,18.961,44.46,18.19z"/>
	<path fill="#1F3B6F" d="M14.404,13.157c0.214-0.133,0.436-0.268,0.612-0.446c0.537-0.544,0.585-1.47,0.134-2.095
		c-0.493-0.682-1.358-0.824-2.155-0.336c-4.01,2.458-8.02,4.919-12.027,7.383c-1.271,0.781-1.295,2.157-0.047,2.979
		c2.143,1.412,4.293,2.811,6.442,4.212c1.894,1.235,3.791,2.467,5.687,3.7c0.546,0.356,1.107,0.375,1.658,0.038
		c0.537-0.329,0.776-0.847,0.744-1.487c-0.034-0.678-0.439-1.083-0.962-1.422c-3.157-2.049-6.308-4.107-9.459-6.165
		c-0.137-0.089-0.267-0.19-0.437-0.313c0.18-0.119,0.317-0.215,0.458-0.302C8.169,16.987,11.288,15.074,14.404,13.157z"/>
	<path fill="#1F3B6F" d="M120.672,7.914c-2.583-0.293-4.746,0.558-6.475,2.496c-0.027,0.03-0.056,0.062-0.137,0.149
		c-0.043-0.073-0.072-0.145-0.121-0.199c-1.274-1.44-2.863-2.285-4.789-2.465c-3.885-0.361-7.297,2.309-7.88,6.158
		c-0.019,0.123-0.043,0.244-0.064,0.367c0,0.686,0,1.371,0,2.057c0.092,0.422,0.159,0.852,0.278,1.267
		c0.411,1.425,1.168,2.671,2.064,3.837c1.433,1.865,3.148,3.445,4.977,4.91c1.701,1.361,3.49,2.6,5.357,3.725
		c0.126,0.076,0.229,0.125,0.385,0.029c3.223-1.967,6.253-4.178,8.872-6.912c1.243-1.299,2.347-2.703,3.104-4.349
		c0.348-0.755,0.604-1.536,0.696-2.365c0.006-0.048,0.029-0.095,0.045-0.142c0-0.686,0-1.371,0-2.057
		c-0.086-0.424-0.147-0.854-0.262-1.271C125.967,10.369,123.523,8.237,120.672,7.914z"/>
	<polygon fill="#1F3B6F" points="61.521,22.472 61.159,24.294 61.083,24.294 60.697,22.472 57.987,13.882 56.015,13.882 
		53.318,22.472 52.968,24.107 52.893,24.107 52.606,22.472 50.371,13.882 47.924,13.882 51.845,27.391 53.83,27.391 56.402,19.163 
		56.938,16.878 57.013,16.865 57.575,19.163 60.185,27.391 62.17,27.391 66.09,13.882 63.643,13.882 	"/>
	<rect x="68.7" y="13.882" fill="#1F3B6F" width="2.459" height="13.509"/>
	<rect x="68.7" y="7.914" fill="#1F3B6F" width="2.459" height="2.509"/>
	<path fill="#1F3B6F" d="M80.092,25.58c-0.171,0.033-0.327,0.05-0.468,0.05c-0.433,0-0.78-0.129-1.042-0.387
		c-0.262-0.258-0.393-0.703-0.393-1.336v-8.203h2.559v-1.822h-2.559v-3.259h-2.46v3.259h-2.147v1.822h2.147v8.203
		c0,1.29,0.295,2.237,0.887,2.841c0.591,0.604,1.386,0.904,2.385,0.904c0.357,0,0.713-0.048,1.067-0.144
		c0.354-0.096,0.622-0.218,0.805-0.368l-0.325-1.686C80.415,25.505,80.263,25.547,80.092,25.58z"/>
	<path fill="#1F3B6F" d="M90.211,13.632c-0.824,0-1.575,0.181-2.253,0.543c-0.679,0.362-1.251,0.868-1.717,1.518V7.914h-2.46v19.477
		h2.46v-9.976c0.357-0.55,0.813-0.984,1.367-1.305c0.553-0.32,1.171-0.48,1.854-0.48c0.949,0,1.662,0.267,2.141,0.799
		c0.479,0.532,0.718,1.356,0.718,2.472v8.49h2.459v-8.465c0-1.798-0.401-3.13-1.205-3.995
		C92.773,14.064,91.651,13.632,90.211,13.632z"/>
	<path fill="#1F3B6F" d="M141.057,13.632c-0.841,0-1.574,0.158-2.203,0.475c-0.629,0.316-1.154,0.774-1.578,1.373V7.914h-2.461
		v19.477h2.011l0.3-1.785c0.434,0.674,0.979,1.184,1.637,1.529c0.656,0.345,1.432,0.518,2.321,0.518c1.64,0,2.929-0.597,3.864-1.791
		c0.936-1.194,1.404-2.766,1.404-4.713v-0.263c0-2.172-0.467-3.925-1.398-5.256C144.021,14.298,142.723,13.632,141.057,13.632z
		 M143.893,21.148c0,1.356-0.283,2.446-0.851,3.271c-0.565,0.824-1.429,1.236-2.584,1.236c-0.782,0-1.431-0.188-1.94-0.562
		c-0.513-0.375-0.928-0.896-1.242-1.562v-5.855c0.308-0.624,0.722-1.121,1.242-1.491c0.52-0.371,1.158-0.556,1.916-0.556
		c1.164,0,2.032,0.488,2.604,1.467c0.57,0.978,0.855,2.241,0.855,3.789V21.148z"/>
	<path fill="#1F3B6F" d="M153.854,24.082h-0.074l-0.438-1.698l-2.847-8.502h-2.747l5.02,13.234l-0.586,1.41
		c-0.226,0.566-0.504,1.082-0.838,1.549c-0.332,0.466-0.762,0.699-1.285,0.699c-0.093,0-0.311-0.013-0.656-0.038
		c-0.346-0.024-0.492-0.033-0.442-0.024l-0.249,1.935c0.166,0.042,0.403,0.086,0.711,0.132c0.309,0.045,0.562,0.068,0.762,0.068
		c1.082,0,1.941-0.337,2.578-1.012c0.637-0.674,1.127-1.465,1.469-2.372l5.681-15.581h-2.733L153.854,24.082z"/>
	<g>
		<g>
			<path fill="#1F3B6F" d="M193.629,17.526c0.858-1.192,2.596-4.352,1.767-9.579c-0.024-0.279-0.215-2.016-1.393-3.842
				c-1.155-1.793-3.516-4.019-8.257-4.448H172.74c-0.371,0-0.674,0.302-0.674,0.674v13.743c0,0.373,0.303,0.674,0.674,0.674h10.892
				c0.321,0.027,2.237,0.144,3.568-1.044c0.829-0.739,1.25-1.801,1.25-3.154c0-1.347-0.416-2.433-1.234-3.229
				c-1.406-1.367-3.48-1.322-3.552-1.322h-7.283c-0.371,0-0.674,0.302-0.674,0.674v3.76c0,0.372,0.303,0.674,0.674,0.674
				c0.373,0,0.675-0.302,0.675-0.674V7.347l6.626,0c0.013,0,1.607-0.025,2.601,0.947c0.543,0.532,0.819,1.291,0.819,2.255
				c0,0.95-0.267,1.671-0.793,2.143c-0.97,0.872-2.554,0.713-2.567,0.711c-0.026-0.002-0.052-0.005-0.077-0.005h-10.249V1.004
				l12.27-0.002c7.832,0.714,8.351,6.811,8.367,7.068c0.001,0.021,0.005,0.043,0.007,0.063c0.96,5.989-1.722,8.875-1.833,8.993
				c-0.133,0.135-0.202,0.321-0.19,0.51c0.012,0.189,0.103,0.365,0.249,0.484c2.723,2.199,2.109,7.445,2.102,7.523
				c-0.757,8.858-9.495,8.568-9.899,8.544h-14.712V1.984h0.67l-1.344-2.328l-1.345,2.328h0.67v32.877
				c0,0.372,0.302,0.675,0.675,0.675l15.354-0.002c0.008,0.001,0.072,0.003,0.187,0.003c1.406,0,10.286-0.377,11.085-9.753
				C195.755,25.552,196.368,20.348,193.629,17.526z"/>
			<path fill="#1F3B6F" d="M172.623,17.479l2.329,1.345v-0.67h11.648c0.027,0,0.055-0.002,0.081-0.005
				c0.055-0.006,5.409-0.741,5.409-7.833c0-7.144-6.689-7.483-6.782-7.487h-9.044c-0.373,0-0.675,0.303-0.675,0.674
				c0,0.372,0.302,0.674,0.675,0.674l9.016,0c0.224,0.01,5.462,0.307,5.462,6.139c0,5.653-3.767,6.421-4.19,6.49h-11.6v-0.671
				L172.623,17.479z"/>
			<path fill="#1F3B6F" d="M172.74,31.895h13.156c0.038,0,0.075-0.004,0.113-0.01c3.889-0.669,6.072-3.202,6.314-7.319
				c0.256-4.352-3.457-6.631-3.615-6.726c-0.317-0.19-0.731-0.087-0.924,0.23c-0.192,0.318-0.089,0.732,0.229,0.924
				c0.13,0.08,3.172,1.968,2.965,5.492c-0.206,3.497-1.888,5.48-5.141,6.06h-12.423v-8.752h10.483c0.026,0,0.051-0.001,0.077-0.005
				c0.016,0,1.633-0.159,2.597,0.701c0.506,0.452,0.764,1.136,0.764,2.036c0,1.06-0.259,1.824-0.769,2.27
				c-0.675,0.59-1.626,0.472-1.63,0.47c-0.033-0.005-0.066-0.008-0.1-0.008h-7.684v-0.52h0.671l-1.344-2.329l-1.345,2.329h0.67
				v1.194c0,0.373,0.303,0.675,0.675,0.675h8.317c0.295,0.029,1.605,0.11,2.641-0.782c0.826-0.712,1.245-1.822,1.245-3.299
				c0-1.3-0.408-2.323-1.214-3.041c-1.332-1.189-3.28-1.066-3.604-1.039H172.74c-0.371,0-0.674,0.302-0.674,0.675v10.1
				C172.066,31.593,172.369,31.895,172.74,31.895z"/>
		</g>
		<g>
			<path fill="#1F3B6F" d="M229.325,34.539l-6.072-11.203c-0.177-0.327-0.584-0.448-0.91-0.27c-0.326,0.177-0.446,0.585-0.27,0.911
				l5.535,10.211h-6.945l-6.807-12.612c-0.116-0.217-0.344-0.353-0.59-0.353h-3.105c-0.369,0-0.671,0.301-0.671,0.671v12.297h-6.039
				V1.982h0.666l-1.338-2.318l-1.338,2.318h0.667v32.882c0,0.37,0.301,0.671,0.671,0.671h7.382c0.371,0,0.672-0.302,0.672-0.671
				V22.566h2.033l6.807,12.612c0.117,0.216,0.345,0.352,0.59,0.352h8.474c0.237,0,0.456-0.125,0.577-0.328
				C229.435,34.999,229.439,34.748,229.325,34.539z"/>
			<path fill="#1F3B6F" d="M206.387,32.851c0.371,0,0.672-0.301,0.672-0.671V1.005h8.725c0.028,0,2.866,0.014,5.679,1.292
				c3.692,1.677,5.564,4.657,5.564,8.859c0,3.103-0.88,5.536-2.614,7.233c-2.654,2.599-6.521,2.667-6.905,2.667
				c-0.067,0-0.037-0.001-0.044-0.001c-0.233,0-0.45,0.121-0.572,0.32c-0.125,0.203-0.134,0.457-0.021,0.667l4.229,7.98
				l-0.589,0.313l2.271,1.418l0.094-2.675l-0.59,0.313l-3.736-7.051c1.574-0.16,4.518-0.762,6.793-2.982
				c2.008-1.961,3.027-4.721,3.027-8.203c0-11.364-12.46-11.495-12.585-11.495h-9.396c-0.37,0-0.671,0.301-0.671,0.671V32.18
				C205.716,32.55,206.017,32.851,206.387,32.851z"/>
			<path fill="#1F3B6F" d="M209.827,18.371l2.298,1.374l0.009-0.652c0.257,0.002,0.518,0.004,0.785,0.004
				c2.144,0,4.603-0.083,6.032-0.406c3.638-0.821,5.81-3.512,5.81-7.199c0-4.362-3.473-7.612-6.629-7.803h-8.054
				c-0.371,0-0.672,0.301-0.672,0.671V7.8c0,0.371,0.301,0.672,0.672,0.672l5.969-0.001c0.009-0.003,1.849-0.017,2.823,0.942
				c0.407,0.401,0.604,0.916,0.604,1.575c0,2.52-3.035,2.975-3.395,3.021h-5.498v-2.685c0-0.37-0.3-0.67-0.671-0.67
				s-0.672,0.301-0.672,0.67v3.356c0,0.37,0.301,0.671,0.672,0.671h6.208c0.022,0,0.046-0.002,0.069-0.003
				c1.601-0.167,4.629-1.293,4.629-4.36c0-1.026-0.341-1.88-1.012-2.537c-1.384-1.356-3.681-1.32-3.771-1.323h-5.286V5.031h7.343
				c2.519,0.153,5.326,2.844,5.326,6.461c0,4.346-3.33,5.566-4.762,5.89c-1.177,0.266-3.477,0.397-6.502,0.369l0.011-0.683
				L209.827,18.371z"/>
		</g>
		<g>
			<path fill="#1F3B6F" d="M262.544,23.688c-0.326-0.179-0.733-0.06-0.911,0.266l-4.442,8.095L241.109,2.478
				c-0.138-0.253-0.421-0.388-0.706-0.34c-0.284,0.05-0.505,0.275-0.547,0.562l-4.805,32.054c-0.029,0.193,0.027,0.389,0.155,0.537
				c0.128,0.148,0.313,0.234,0.509,0.234h7.158c0.327,0,0.606-0.236,0.662-0.559l1.282-7.508l0.658,0.113l-0.93-2.511l-1.709,2.06
				l0.657,0.113l-1.188,6.95h-5.812l4.392-29.302l15.711,28.89c0.117,0.216,0.343,0.35,0.589,0.351l0,0
				c0.246,0,0.472-0.134,0.589-0.348l5.034-9.173C262.988,24.275,262.869,23.867,262.544,23.688z"/>
			<path fill="#1F3B6F" d="M243.237,13.781c-0.136-0.253-0.409-0.392-0.701-0.346c-0.283,0.046-0.507,0.268-0.554,0.552
				l-2.634,15.785l-0.657-0.11l0.939,2.507l1.701-2.067l-0.658-0.109l2.31-13.838l10.154,19.019
				c0.121,0.226,0.354,0.354,0.593,0.354c0.106,0,0.215-0.025,0.315-0.079c0.327-0.174,0.45-0.581,0.276-0.908L243.237,13.781z"/>
			<path fill="#1F3B6F" d="M264.561,13.423c-0.049-0.283-0.272-0.503-0.556-0.549c-0.29-0.045-0.565,0.096-0.699,0.351
				l-6.119,11.624L244.843,1.401l0.592-0.311l-2.265-1.429l-0.105,2.675l0.591-0.311l12.938,24.576
				c0.116,0.22,0.346,0.359,0.594,0.359c0.25,0,0.479-0.138,0.594-0.359l5.792-11.003l3.325,19.363
				c0.056,0.327,0.34,0.558,0.661,0.558c0.037,0,0.075-0.003,0.114-0.01c0.365-0.063,0.609-0.41,0.548-0.775L264.561,13.423z"/>
			<path fill="#1F3B6F" d="M275.368,34.749l-5.437-34.515c-0.052-0.327-0.332-0.567-0.664-0.567h-2.684
				c-0.249,0-0.476,0.138-0.593,0.357l-9.396,17.674c-0.174,0.327-0.05,0.732,0.278,0.907c0.325,0.173,0.733,0.051,0.907-0.277
				l9.206-17.318h1.708l5.226,33.172h-2.555l-3.762-24.161l0.66-0.103l-1.68-2.085l-0.967,2.497l0.66-0.103l3.85,24.73
				c0.052,0.327,0.333,0.568,0.663,0.568h3.915c0.196,0,0.384-0.086,0.511-0.236C275.343,35.14,275.399,34.943,275.368,34.749z"/>
		</g>
	</g>
</g>
</svg>
