<?xml version="1.0" encoding="utf-8"?>
<!-- Generator: Adobe Illustrator 16.0.0, SVG Export Plug-In . SVG Version: 6.00 Build 0)  -->
<!DOCTYPE svg PUBLIC "-//W3C//DTD SVG 1.0//EN" "http://www.w3.org/TR/2001/REC-SVG-20010904/DTD/svg10.dtd">
<svg version="1.0" id="Capa_1" xmlns="http://www.w3.org/2000/svg" xmlns:xlink="http://www.w3.org/1999/xlink" x="0px" y="0px"
	 width="63.958px" height="64.083px" viewBox="0 0 63.958 64.083" enable-background="new 0 0 63.958 64.083" xml:space="preserve">
<symbol  id="New_Symbol_2" viewBox="-22 -31 44 61">
	<g>
		<g>
			<path fill="none" stroke="#002F6C" stroke-miterlimit="10" d="M-6.389,16C-7.003,16-7.5,16.498-7.5,17.111v0.777
				C-7.5,18.502-7.003,19-6.389,19"/>
			<path fill="none" stroke="#002F6C" stroke-miterlimit="10" d="M-6.389,5C-7.003,5-7.5,5.498-7.5,6.111v0.777
				C-7.5,7.502-7.003,8-6.389,8"/>
			<path fill="none" stroke="#002F6C" stroke-miterlimit="10" d="M6.389-16C7.003-16,7.5-16.498,7.5-17.111v-0.777
				C7.5-18.502,7.003-19,6.389-19"/>
			<path fill="none" stroke="#002F6C" stroke-miterlimit="10" d="M20.389,3C21.003,3,21.5,2.502,21.5,1.889V1.111
				C21.5,0.498,21.003,0,20.389,0"/>
			<path fill="none" stroke="#002F6C" stroke-miterlimit="10" d="M-6.5,5v-16.5h-4v9.847c0,2.018-1.636,3.153-3.654,3.153h-2.692
				c-2.018,0-3.654-1.136-3.654-3.153V-4"/>
			<line fill="none" stroke="#002F6C" stroke-miterlimit="10" x1="-6.5" y1="16" x2="-6.5" y2="7"/>
			<path fill="none" stroke="#002F6C" stroke-miterlimit="10" d="M20.5,2v7.347c0,2.018-1.636,3.153-3.654,3.153h-2.692
				c-2.018,0-3.654-1.136-3.654-3.153V-3.5h-4V25c0,2.762-2.238,4.5-5,4.5h-3c-2.762,0-5-1.738-5-4.5v-7"/>
			<path fill="none" stroke="#002F6C" stroke-miterlimit="10" d="M6.5-17v5.5h7.654H15.5h1.346c2.018,0,3.654,2.136,3.654,4.153V0"
				/>
			<path fill="none" stroke="#002F6C" stroke-miterlimit="10" d="M-20.5-6v-12.347c0-2.018,1.636-4.153,3.654-4.153h0.346h2.346
				H-6.5V-25c0-2.762,2.238-5.5,5-5.5h3c2.762,0,5,2.738,5,5.5v6"/>
		</g>
		<path fill="#002F6C" d="M-20.639-6C-21.253-6-22-5.502-22-4.889v0.777C-22-3.498-21.378-3-20.764-3"/>
	</g>
	<path fill="none" stroke="#002F6C" stroke-miterlimit="10" d="M-6.389,16C-7.003,16-7.5,16.498-7.5,17.111v0.777
		C-7.5,18.502-7.003,19-6.389,19"/>
	<path fill="#002F6C" stroke="#002F6B" stroke-miterlimit="10" d="M-20.5-3.5v1.847c0,2.018,1.636,3.153,3.654,3.153h2.692
		c2.018,0,3.654-1.136,3.654-3.153V-11.5h4v17v13V25c0,2.762,2.238,4.5,5,4.5h3c2.762,0,5-1.738,5-4.5V-3.5h4V9.347
		c0,2.018,1.636,3.153,3.654,3.153h2.692c2.018,0,3.654-1.136,3.654-3.153V2.5v-2v-7.847c0-2.018-1.636-4.153-3.654-4.153H15.5
		h-1.346H6.5v-5v-2V-25c0-2.762-2.238-5.5-5-5.5h-3c-2.762,0-5,2.738-5,5.5v2.5h-7.654H-16.5h-0.346
		c-2.018,0-3.654,2.136-3.654,4.153V-5.5V-3.5z"/>
	<path fill="none" stroke="#002F6C" stroke-miterlimit="10" d="M-6.389,5C-7.003,5-7.5,5.498-7.5,6.111v0.777
		C-7.5,7.502-7.003,8-6.389,8"/>
	<path fill="none" stroke="#002F6C" stroke-miterlimit="10" d="M6.389-16C7.003-16,7.5-16.498,7.5-17.111v-0.777
		C7.5-18.502,7.003-19,6.389-19"/>
	<line fill="none" stroke="#002F6C" stroke-miterlimit="10" x1="-6.5" y1="16" x2="-6.5" y2="7"/>
	<polygon display="none" fill="none" points="-22,30 22,30 22,-31 -22,-31 	"/>
</symbol>
<g>
	<g>
		
			<circle fill="none" stroke="#002F6C" stroke-width="1.5" stroke-linecap="round" stroke-linejoin="round" stroke-miterlimit="10" cx="32" cy="32" r="31"/>
	</g>
	
		<use xlink:href="#New_Symbol_2"  width="44" height="61" x="-22" y="-31" transform="matrix(0.6222 0 0 -0.6222 32.1304 31.4893)" overflow="visible"/>
</g>
</svg>
