<svg version="1.1" id="brm" xmlns="http://www.w3.org/2000/svg" xmlns:xlink="http://www.w3.org/1999/xlink" x="0px" y="0px"
	 width="78.227px" height="34.79px" viewBox="0 0 78.227 34.79" enable-background="new 0 0 78.227 34.79" xml:space="preserve">
<g>
	<g>
		<path fill="#6D6E70" d="M3.347,31.262c-0.144-0.15-0.314-0.271-0.512-0.354s-0.424-0.125-0.681-0.125
			c-0.264,0-0.501,0.049-0.712,0.146c-0.212,0.098-0.392,0.229-0.539,0.394c-0.147,0.163-0.261,0.353-0.341,0.571
			c-0.079,0.217-0.119,0.446-0.119,0.687c0,0.239,0.04,0.467,0.119,0.686c0.08,0.217,0.194,0.406,0.341,0.569
			c0.147,0.16,0.327,0.291,0.539,0.389c0.211,0.098,0.448,0.146,0.712,0.146c0.233,0,0.447-0.025,0.641-0.076
			c0.194-0.051,0.351-0.113,0.472-0.192V32.85h-0.96v-0.372h1.379v1.859c-0.225,0.138-0.468,0.24-0.727,0.305
			c-0.26,0.065-0.53,0.101-0.81,0.101c-0.31,0-0.598-0.057-0.861-0.165c-0.264-0.106-0.491-0.259-0.68-0.448
			c-0.191-0.193-0.339-0.422-0.445-0.687C0.053,33.18,0,32.892,0,32.576c0-0.314,0.054-0.603,0.163-0.865
			c0.109-0.265,0.26-0.492,0.452-0.686c0.192-0.19,0.419-0.342,0.681-0.451c0.262-0.108,0.546-0.163,0.853-0.163
			c0.33,0,0.618,0.05,0.861,0.149c0.245,0.098,0.454,0.235,0.629,0.411L3.347,31.262z"/>
		<path fill="#6D6E70" d="M4.908,34.748H4.467v-4.342h1.276c0.212,0,0.41,0.02,0.591,0.062c0.182,0.039,0.339,0.106,0.473,0.199
			c0.132,0.092,0.236,0.212,0.31,0.358c0.073,0.146,0.11,0.327,0.11,0.539c0,0.16-0.029,0.305-0.086,0.435
			c-0.057,0.134-0.135,0.247-0.233,0.342c-0.098,0.096-0.215,0.173-0.35,0.23c-0.134,0.059-0.282,0.093-0.441,0.109l1.269,2.067
			h-0.54l-1.202-2.03H4.908V34.748z M4.908,32.338h0.766c0.356,0,0.629-0.065,0.822-0.195c0.192-0.128,0.289-0.32,0.289-0.579
			c0-0.141-0.027-0.263-0.08-0.36c-0.053-0.1-0.126-0.179-0.221-0.239c-0.094-0.062-0.208-0.106-0.343-0.135
			c-0.135-0.03-0.284-0.044-0.448-0.044H4.908V32.338z"/>
		<path fill="#6D6E70" d="M8.653,34.75H8.168l1.879-4.346h0.43l1.866,4.346h-0.491l-0.479-1.142H9.125L8.653,34.75z M9.292,33.204
			h1.916l-0.958-2.309L9.292,33.204z"/>
		<path fill="#6D6E70" d="M16.207,34.106h0.012v-3.702h0.441v4.346h-0.552l-2.529-3.739h-0.012v3.739h-0.442v-4.346h0.553
			L16.207,34.106z"/>
		<path fill="#6D6E70" d="M17.443,30.399h1.445c0.271,0,0.542,0.048,0.815,0.136c0.272,0.09,0.518,0.228,0.737,0.409
			c0.219,0.184,0.396,0.411,0.532,0.683c0.135,0.272,0.203,0.589,0.203,0.949c0,0.365-0.067,0.684-0.203,0.953
			c-0.135,0.272-0.312,0.497-0.532,0.679c-0.219,0.184-0.465,0.321-0.737,0.409c-0.273,0.091-0.544,0.138-0.815,0.138h-1.445V30.399
			z M17.886,34.359h0.879c0.328,0,0.614-0.052,0.857-0.153c0.244-0.103,0.446-0.237,0.606-0.402s0.28-0.355,0.359-0.569
			c0.08-0.212,0.12-0.43,0.12-0.658c0-0.226-0.04-0.443-0.12-0.658c-0.08-0.212-0.199-0.401-0.359-0.567
			c-0.16-0.167-0.362-0.3-0.606-0.402c-0.243-0.104-0.529-0.155-0.857-0.155h-0.879V34.359z"/>
		<path fill="#6D6E70" d="M22.4,34.356h2.327v0.394h-2.77v-4.346h2.695v0.394H22.4v1.49h2.105v0.393H22.4V34.356z"/>
		<path fill="#6D6E70" d="M27.767,31.176c-0.089-0.126-0.204-0.226-0.344-0.3c-0.14-0.077-0.309-0.114-0.507-0.114
			c-0.102,0-0.205,0.015-0.31,0.047c-0.105,0.03-0.2,0.079-0.286,0.142c-0.085,0.064-0.155,0.146-0.207,0.244
			c-0.053,0.095-0.079,0.211-0.079,0.344s0.025,0.24,0.075,0.326c0.05,0.085,0.118,0.157,0.201,0.219
			c0.083,0.06,0.178,0.111,0.286,0.148c0.106,0.039,0.218,0.078,0.334,0.118c0.144,0.046,0.289,0.096,0.434,0.151
			c0.146,0.054,0.276,0.125,0.393,0.211c0.116,0.089,0.211,0.2,0.285,0.332c0.074,0.136,0.11,0.305,0.11,0.513
			c0,0.207-0.04,0.383-0.118,0.535c-0.079,0.147-0.181,0.271-0.307,0.369c-0.125,0.098-0.269,0.169-0.431,0.216
			c-0.161,0.046-0.324,0.07-0.487,0.07c-0.125,0-0.249-0.012-0.374-0.038c-0.125-0.025-0.243-0.062-0.355-0.113
			c-0.113-0.052-0.218-0.114-0.315-0.192c-0.098-0.078-0.183-0.168-0.257-0.268l0.362-0.271c0.089,0.148,0.215,0.272,0.376,0.372
			c0.161,0.098,0.351,0.148,0.569,0.148c0.105,0,0.212-0.017,0.321-0.051c0.109-0.032,0.208-0.084,0.295-0.15
			c0.088-0.067,0.159-0.152,0.216-0.252c0.057-0.1,0.084-0.214,0.084-0.346c0-0.145-0.028-0.266-0.084-0.36
			c-0.057-0.096-0.131-0.175-0.225-0.238c-0.094-0.064-0.2-0.118-0.321-0.162c-0.121-0.041-0.247-0.083-0.379-0.128
			c-0.136-0.042-0.271-0.091-0.403-0.146c-0.132-0.053-0.25-0.125-0.356-0.212c-0.104-0.088-0.19-0.194-0.253-0.325
			c-0.065-0.128-0.097-0.284-0.097-0.472c0-0.198,0.04-0.369,0.12-0.515c0.08-0.144,0.184-0.262,0.313-0.355
			c0.127-0.093,0.269-0.16,0.425-0.204c0.156-0.041,0.309-0.063,0.461-0.063c0.28,0,0.519,0.05,0.717,0.147
			c0.199,0.1,0.349,0.219,0.45,0.355L27.767,31.176z"/>
	</g>
	<g>
		<path fill="#6D6E70" d="M31.223,34.748h-0.433v-4.339h0.433V34.748z"/>
		<path fill="#6D6E70" d="M35.05,34.101h0.013v-3.69h0.44v4.332h-0.551l-2.521-3.725H32.42v3.725h-0.441v-4.332h0.551L35.05,34.101z
			"/>
		<path fill="#6D6E70" d="M38.164,34.761H37.72v-3.971h-1.461v-0.396h3.365v0.396h-1.46V34.761z"/>
		<path fill="#6D6E70" d="M40.823,34.356h2.328v0.394H40.38v-4.346h2.696v0.394h-2.254v1.49h2.105v0.395h-2.105V34.356z"/>
		<path fill="#6D6E70" d="M44.347,34.75h-0.441v-4.346h1.277c0.213,0,0.409,0.021,0.592,0.062c0.183,0.041,0.341,0.106,0.473,0.199
			c0.134,0.094,0.236,0.212,0.31,0.36c0.074,0.146,0.111,0.325,0.111,0.539c0,0.16-0.029,0.305-0.086,0.435
			c-0.058,0.134-0.134,0.247-0.233,0.342c-0.099,0.096-0.215,0.173-0.351,0.23c-0.134,0.059-0.281,0.096-0.441,0.111l1.271,2.067
			h-0.541l-1.203-2.032h-0.737V34.75z M44.347,32.338h0.769c0.356,0,0.631-0.065,0.822-0.192c0.191-0.131,0.289-0.323,0.289-0.582
			c0-0.144-0.027-0.265-0.081-0.362c-0.052-0.098-0.126-0.177-0.221-0.239c-0.093-0.061-0.208-0.107-0.345-0.135
			c-0.134-0.028-0.283-0.042-0.447-0.042h-0.786V32.338z"/>
		<path fill="#6D6E70" d="M48.07,34.754h-0.486l1.883-4.355h0.431l1.871,4.355h-0.494l-0.479-1.145h-2.253L48.07,34.754z
			 M48.71,33.206h1.917l-0.959-2.313L48.71,33.206z"/>
		<path fill="#6D6E70" d="M56.226,33.973c-0.07,0.104-0.155,0.204-0.256,0.297c-0.098,0.096-0.213,0.178-0.344,0.249
			c-0.13,0.07-0.273,0.128-0.433,0.17c-0.157,0.039-0.33,0.061-0.517,0.061c-0.311,0-0.599-0.054-0.864-0.163
			c-0.265-0.108-0.493-0.261-0.683-0.453c-0.191-0.193-0.34-0.421-0.446-0.686c-0.107-0.266-0.161-0.556-0.161-0.87
			c0-0.316,0.055-0.606,0.164-0.872c0.108-0.262,0.259-0.492,0.452-0.686c0.192-0.192,0.421-0.344,0.684-0.453
			c0.263-0.106,0.549-0.163,0.854-0.163c0.152,0,0.302,0.018,0.447,0.05c0.146,0.03,0.284,0.074,0.411,0.132
			c0.129,0.058,0.247,0.125,0.352,0.207c0.104,0.079,0.193,0.172,0.263,0.271l-0.351,0.259c-0.042-0.067-0.101-0.133-0.173-0.2
			c-0.072-0.065-0.155-0.123-0.253-0.175c-0.099-0.051-0.205-0.093-0.318-0.122c-0.114-0.03-0.24-0.047-0.371-0.047
			c-0.269,0-0.509,0.049-0.723,0.144c-0.211,0.098-0.392,0.23-0.538,0.396c-0.149,0.165-0.262,0.355-0.34,0.572
			c-0.078,0.219-0.117,0.445-0.117,0.688c0,0.24,0.04,0.47,0.121,0.687c0.08,0.219,0.192,0.408,0.342,0.574
			c0.146,0.164,0.327,0.295,0.539,0.393s0.451,0.144,0.716,0.144c0.238,0,0.464-0.046,0.678-0.144s0.393-0.254,0.537-0.467
			L56.226,33.973z"/>
		<path fill="#6D6E70" d="M60.685,33.973c-0.07,0.104-0.155,0.204-0.255,0.297c-0.099,0.096-0.214,0.178-0.344,0.249
			c-0.131,0.07-0.274,0.128-0.434,0.17c-0.157,0.039-0.33,0.061-0.516,0.061c-0.312,0-0.6-0.054-0.865-0.163
			c-0.264-0.108-0.492-0.261-0.684-0.453c-0.189-0.193-0.339-0.421-0.445-0.686c-0.107-0.266-0.161-0.556-0.161-0.87
			c0-0.316,0.054-0.606,0.163-0.872c0.108-0.262,0.261-0.492,0.453-0.686c0.192-0.192,0.421-0.344,0.682-0.453
			c0.265-0.106,0.55-0.163,0.857-0.163c0.15,0,0.3,0.018,0.446,0.05c0.146,0.03,0.283,0.074,0.412,0.132
			c0.128,0.058,0.244,0.125,0.351,0.207c0.104,0.079,0.191,0.172,0.263,0.271l-0.352,0.259c-0.043-0.067-0.1-0.133-0.171-0.2
			c-0.072-0.065-0.158-0.123-0.254-0.175c-0.098-0.051-0.205-0.093-0.318-0.122c-0.115-0.03-0.24-0.047-0.372-0.047
			c-0.269,0-0.51,0.049-0.721,0.144c-0.213,0.098-0.393,0.23-0.54,0.396c-0.148,0.165-0.262,0.355-0.339,0.572
			c-0.078,0.219-0.116,0.445-0.116,0.688c0,0.24,0.039,0.47,0.118,0.687c0.08,0.219,0.194,0.408,0.342,0.574
			c0.149,0.164,0.328,0.295,0.541,0.393c0.212,0.098,0.45,0.144,0.715,0.144c0.238,0,0.463-0.046,0.679-0.144
			c0.214-0.098,0.393-0.254,0.537-0.467L60.685,33.973z"/>
		<path fill="#6D6E70" d="M61.872,34.761H61.44v-4.369h0.433V34.761z"/>
		<path fill="#6D6E70" d="M66.921,32.578c0,0.314-0.053,0.603-0.162,0.868c-0.107,0.262-0.258,0.49-0.451,0.684
			c-0.191,0.189-0.418,0.342-0.681,0.448c-0.262,0.108-0.545,0.165-0.853,0.165c-0.306,0-0.591-0.057-0.853-0.165
			c-0.261-0.106-0.488-0.259-0.681-0.448c-0.191-0.193-0.342-0.422-0.451-0.684c-0.107-0.266-0.163-0.554-0.163-0.868
			c0-0.313,0.056-0.604,0.163-0.867c0.109-0.265,0.26-0.492,0.451-0.684c0.192-0.192,0.42-0.344,0.681-0.45
			c0.262-0.109,0.547-0.164,0.853-0.164c0.308,0,0.591,0.055,0.853,0.164c0.263,0.106,0.489,0.258,0.681,0.45
			c0.193,0.191,0.344,0.419,0.451,0.684C66.868,31.973,66.921,32.264,66.921,32.578z M66.48,32.581c0-0.24-0.038-0.47-0.115-0.687
			c-0.079-0.216-0.191-0.406-0.339-0.571c-0.146-0.165-0.326-0.296-0.538-0.394c-0.212-0.095-0.448-0.144-0.713-0.144
			c-0.264,0-0.501,0.049-0.712,0.144c-0.212,0.098-0.391,0.229-0.539,0.394c-0.146,0.165-0.259,0.355-0.337,0.571
			c-0.077,0.217-0.116,0.446-0.116,0.687c0,0.239,0.039,0.467,0.116,0.686c0.078,0.217,0.19,0.406,0.337,0.569
			c0.148,0.163,0.327,0.291,0.539,0.389c0.211,0.098,0.448,0.146,0.712,0.146c0.265,0,0.501-0.048,0.713-0.146
			s0.392-0.226,0.538-0.389c0.147-0.163,0.26-0.353,0.339-0.569C66.442,33.047,66.48,32.82,66.48,32.581z"/>
		<path fill="#6D6E70" d="M70.75,34.101h0.013v-3.69h0.438v4.332h-0.55l-2.521-3.725h-0.012v3.725h-0.441v-4.332h0.552L70.75,34.101
			z"/>
		<path fill="#6D6E70" d="M72.402,34.363h2.336v0.396h-2.78v-4.362h2.706v0.394h-2.262v1.497h2.113v0.395h-2.113V34.363z"/>
		<path fill="#6D6E70" d="M77.751,31.176c-0.089-0.124-0.205-0.224-0.344-0.3c-0.142-0.077-0.311-0.114-0.509-0.114
			c-0.101,0-0.204,0.017-0.311,0.047c-0.104,0.032-0.199,0.079-0.284,0.144c-0.086,0.062-0.154,0.145-0.208,0.242
			c-0.052,0.098-0.078,0.211-0.078,0.344s0.024,0.242,0.076,0.326c0.05,0.085,0.115,0.159,0.2,0.219
			c0.083,0.06,0.178,0.111,0.285,0.148c0.107,0.039,0.219,0.078,0.335,0.118c0.143,0.046,0.287,0.098,0.434,0.151
			c0.144,0.054,0.275,0.125,0.393,0.213c0.116,0.087,0.212,0.198,0.285,0.333s0.11,0.305,0.11,0.51c0,0.207-0.04,0.386-0.117,0.535
			c-0.08,0.15-0.182,0.273-0.307,0.371c-0.126,0.096-0.271,0.167-0.432,0.214c-0.16,0.049-0.323,0.07-0.487,0.07
			c-0.124,0-0.249-0.012-0.373-0.038c-0.124-0.025-0.243-0.062-0.355-0.113c-0.114-0.052-0.219-0.114-0.315-0.192
			s-0.184-0.168-0.257-0.268l0.361-0.271c0.089,0.148,0.216,0.272,0.377,0.372c0.16,0.1,0.351,0.148,0.568,0.148
			c0.105,0,0.212-0.017,0.322-0.049c0.107-0.034,0.207-0.083,0.294-0.152c0.087-0.067,0.159-0.152,0.217-0.252
			c0.056-0.098,0.083-0.214,0.083-0.346c0-0.145-0.027-0.266-0.083-0.358c-0.058-0.095-0.132-0.177-0.225-0.24
			c-0.094-0.064-0.202-0.118-0.322-0.159c-0.119-0.044-0.247-0.086-0.379-0.131c-0.137-0.042-0.271-0.091-0.402-0.144
			c-0.133-0.056-0.251-0.126-0.357-0.215c-0.104-0.088-0.188-0.194-0.253-0.323c-0.063-0.127-0.097-0.286-0.097-0.474
			c0-0.198,0.04-0.367,0.12-0.515c0.08-0.144,0.184-0.262,0.312-0.355c0.128-0.093,0.271-0.16,0.426-0.201
			c0.155-0.044,0.309-0.066,0.461-0.066c0.279,0,0.519,0.05,0.718,0.149c0.198,0.1,0.349,0.217,0.449,0.354L77.751,31.176z"/>
	</g>
	<g>
		<g>
			<path fill="#1F3B6F" d="M18.82,12.987c0.624-0.867,1.886-3.163,1.283-6.962c-0.017-0.203-0.156-1.465-1.012-2.792
				C18.252,1.93,16.537,0.312,13.091,0H3.639c-0.271,0-0.49,0.22-0.49,0.491v9.987c0,0.271,0.22,0.49,0.49,0.49h7.915
				c0.234,0.02,1.626,0.104,2.594-0.759c0.603-0.538,0.908-1.309,0.908-2.292c0-0.979-0.302-1.768-0.897-2.346
				C13.136,4.577,11.63,4.61,11.578,4.61H6.285c-0.271,0-0.49,0.219-0.49,0.489v2.732c0,0.271,0.219,0.49,0.49,0.49
				c0.27,0,0.49-0.22,0.49-0.49V5.59h4.815c0.009,0,1.168-0.019,1.89,0.688c0.395,0.386,0.596,0.938,0.596,1.639
				c0,0.69-0.194,1.214-0.576,1.557c-0.705,0.634-1.855,0.519-1.866,0.517c-0.019-0.002-0.037-0.003-0.056-0.003H4.129V0.98
				l8.917-0.002c5.692,0.519,6.067,4.949,6.081,5.137c0,0.016,0.002,0.031,0.004,0.045c0.697,4.353-1.251,6.451-1.333,6.537
				c-0.096,0.098-0.146,0.233-0.139,0.371c0.009,0.137,0.075,0.265,0.182,0.352c1.979,1.597,1.534,5.411,1.527,5.468
				c-0.55,6.435-6.901,6.226-7.195,6.206H1.484V1.692H1.97L0.993,0L0.016,1.692h0.487v23.892c0,0.271,0.219,0.49,0.49,0.49
				l11.158-0.002c0.005,0.002,0.053,0.002,0.136,0.002c1.022,0,7.475-0.271,8.057-7.086C20.365,18.821,20.81,15.038,18.82,12.987z"
				/>
			<path fill="#1F3B6F" d="M3.553,12.953l1.692,0.977v-0.487h8.466c0.02,0,0.04-0.001,0.059-0.003
				c0.04-0.005,3.931-0.539,3.931-5.693c0-5.192-4.861-5.438-4.929-5.441H6.2c-0.27,0-0.49,0.22-0.49,0.491
				c0,0.27,0.22,0.49,0.49,0.49l6.552,0c0.162,0.007,3.97,0.223,3.97,4.461c0,4.108-2.738,4.667-3.046,4.716h-8.43v-0.486
				L3.553,12.953z"/>
			<path fill="#1F3B6F" d="M3.639,23.429h9.56c0.028,0,0.056-0.003,0.083-0.007c2.826-0.488,4.413-2.326,4.589-5.319
				c0.186-3.163-2.512-4.819-2.628-4.888c-0.23-0.138-0.531-0.063-0.67,0.167c-0.14,0.231-0.065,0.532,0.166,0.672
				c0.094,0.057,2.305,1.429,2.155,3.991c-0.15,2.541-1.372,3.981-3.736,4.402H4.129v-6.36h7.62c0.019,0,0.036,0,0.056-0.002
				c0.011,0,1.186-0.116,1.887,0.509c0.368,0.328,0.555,0.825,0.555,1.478c0,0.771-0.188,1.325-0.559,1.649
				c-0.49,0.43-1.181,0.343-1.184,0.341c-0.024-0.002-0.048-0.005-0.072-0.005H6.847V19.68h0.487l-0.977-1.691L5.38,19.68h0.488
				v0.87c0,0.27,0.22,0.49,0.49,0.49h6.045c0.214,0.021,1.167,0.08,1.919-0.569c0.601-0.519,0.905-1.323,0.905-2.397
				c0-0.945-0.297-1.687-0.883-2.211c-0.968-0.863-2.384-0.773-2.619-0.754H3.639c-0.271,0-0.49,0.22-0.49,0.491v7.339
				C3.149,23.208,3.369,23.429,3.639,23.429z"/>
		</g>
		<g>
			<path fill="#1F3B6F" d="M44.763,25.35l-4.414-8.141c-0.128-0.237-0.425-0.325-0.661-0.196c-0.237,0.128-0.325,0.425-0.195,0.662
				l4.022,7.418h-5.048l-4.946-9.163c-0.085-0.158-0.25-0.256-0.429-0.256h-2.256c-0.269,0-0.488,0.219-0.488,0.488v8.936h-4.389
				V1.69h0.484L25.47,0.006L24.497,1.69h0.485v23.897c0,0.27,0.219,0.487,0.488,0.487h5.365c0.27,0,0.488-0.218,0.488-0.487V16.65
				h1.478l4.946,9.165c0.086,0.158,0.25,0.255,0.43,0.255h6.157c0.173,0,0.332-0.09,0.421-0.236
				C44.841,25.684,44.846,25.501,44.763,25.35z"/>
			<path fill="#1F3B6F" d="M28.092,24.125c0.27,0,0.488-0.22,0.488-0.489V0.98h6.341c0.02,0,2.083,0.011,4.127,0.939
				c2.683,1.219,4.043,3.384,4.043,6.438c0,2.255-0.639,4.023-1.899,5.257c-1.93,1.887-4.739,1.938-5.018,1.938
				c-0.049,0.001-0.028,0-0.033,0c-0.17,0-0.327,0.087-0.416,0.231c-0.09,0.148-0.097,0.333-0.016,0.486l3.074,5.799l-0.427,0.229
				l1.649,1.029l0.068-1.942l-0.429,0.228l-2.715-5.125c1.144-0.118,3.282-0.554,4.937-2.168c1.459-1.424,2.2-3.43,2.2-5.961
				c0-8.258-9.055-8.354-9.146-8.354h-6.829c-0.269,0-0.488,0.219-0.488,0.488v23.144C27.603,23.906,27.823,24.125,28.092,24.125z"
				/>
			<path fill="#1F3B6F" d="M30.592,13.602l1.67,0.998l0.007-0.474c0.186,0.002,0.375,0.003,0.57,0.003
				c1.558,0,3.345-0.061,4.384-0.295c2.643-0.596,4.221-2.552,4.221-5.231c0-3.17-2.523-5.532-4.817-5.671h-5.853
				c-0.269,0-0.488,0.218-0.488,0.488v2.5c0,0.269,0.219,0.488,0.488,0.488h4.338c0.005-0.003,1.343-0.013,2.052,0.685
				c0.295,0.291,0.438,0.665,0.438,1.145c0,1.831-2.205,2.162-2.467,2.195h-3.995V8.48c0-0.269-0.219-0.488-0.488-0.488
				c-0.269,0-0.488,0.219-0.488,0.488v2.439c0,0.269,0.219,0.488,0.488,0.488h4.512c0.017,0,0.034-0.001,0.05-0.003
				c1.164-0.121,3.364-0.939,3.364-3.168c0-0.746-0.247-1.367-0.735-1.844c-1.006-0.985-2.675-0.959-2.741-0.961h-3.841V3.907h5.335
				c1.831,0.11,3.871,2.066,3.871,4.695c0,3.158-2.42,4.045-3.46,4.281c-0.855,0.192-2.528,0.288-4.726,0.267l0.007-0.496
				L30.592,13.602z"/>
		</g>
		<g>
			<path fill="#1F3B6F" d="M68.904,17.465c-0.235-0.13-0.532-0.042-0.663,0.193l-3.227,5.884L53.325,2.051
				c-0.1-0.184-0.305-0.281-0.512-0.247c-0.208,0.037-0.367,0.2-0.397,0.408l-3.492,23.296c-0.021,0.139,0.021,0.281,0.114,0.391
				c0.092,0.106,0.226,0.167,0.369,0.167h5.201c0.238,0,0.441-0.17,0.481-0.404l0.932-5.456l0.479,0.081l-0.676-1.823l-1.242,1.496
				l0.479,0.081l-0.864,5.051h-4.225l3.192-21.295l11.417,20.997c0.087,0.155,0.25,0.253,0.429,0.255c0.001,0,0.001,0,0.001,0
				c0.179,0,0.342-0.098,0.428-0.253l3.658-6.666C69.227,17.892,69.14,17.595,68.904,17.465z"/>
			<path fill="#1F3B6F" d="M54.873,10.266c-0.098-0.184-0.298-0.286-0.51-0.252c-0.206,0.034-0.368,0.195-0.402,0.401l-1.913,11.471
				l-0.479-0.079l0.683,1.82l1.235-1.502l-0.479-0.079l1.679-10.057l7.38,13.821c0.088,0.164,0.257,0.259,0.432,0.259
				c0.076,0,0.156-0.019,0.229-0.058c0.238-0.128,0.327-0.423,0.201-0.66L54.873,10.266z"/>
			<path fill="#1F3B6F" d="M70.37,10.005c-0.036-0.206-0.198-0.366-0.405-0.399c-0.21-0.032-0.41,0.07-0.508,0.255l-4.446,8.448
				L56.04,1.269l0.429-0.227l-1.645-1.038l-0.076,1.944l0.429-0.226l9.402,17.861c0.084,0.159,0.25,0.262,0.432,0.262
				c0.181,0,0.348-0.103,0.432-0.262l4.209-7.996l2.415,14.071c0.042,0.237,0.249,0.404,0.481,0.404
				c0.026,0,0.055-0.002,0.083-0.007c0.266-0.046,0.443-0.298,0.398-0.562L70.37,10.005z"/>
			<path fill="#1F3B6F" d="M78.224,25.503L74.273,0.42c-0.037-0.237-0.241-0.412-0.482-0.412h-1.95c-0.18,0-0.347,0.1-0.431,0.259
				l-6.83,12.845c-0.125,0.237-0.036,0.532,0.204,0.659c0.236,0.126,0.532,0.037,0.659-0.202l6.69-12.586h1.24l3.798,24.107h-1.856
				L72.581,7.532l0.479-0.075L71.84,5.942l-0.702,1.815l0.479-0.075l2.799,17.971c0.037,0.238,0.242,0.412,0.481,0.412h2.846
				c0.142,0,0.278-0.062,0.37-0.17C78.205,25.788,78.246,25.645,78.224,25.503z"/>
		</g>
	</g>
</g>
</svg>
